<svg xmlns="http://www.w3.org/2000/svg" xml:space="preserve" viewBox="0 0 450 450">
	<path fill="currentColor" stroke="currentColor" stroke-linecap="round" stroke-linejoin="round" stroke-miterlimit="10" stroke-width="2" d="M111 243.8a92 92 0 0 1 7.8 5.7 36.1 36.1 0 0 1 5.5 5.7l.8 1.3 1.6 2a38 38 0 0 0 4.7 4.1c2.4 1.8 5 3.6 7.5 5.1M36.6 216.1a51.9 51.9 0 0 0-1.6 21.8c0 .8.2 1.7.6 2.5 0 0 0 0 0 0l.1.2a4 4 0 0 0 .2.2v.1a6.4 6.4 0 0 0 .3.3s0 0 0 0a5.4 5.4 0 0 0 .3.2h.1a2 2 0 0 0 .3 0v.1h.2s0 0 0 0h.6l1.9-1 2-1.4 4-3a9.4 9.4 0 0 1 2.7-1.3h.4s0 0 0 0h.2s0 0 0 0h.5v.1a9.4 9.4 0 0 1 .3.1l.1.1a3.6 3.6 0 0 1 .3.3l.1.2c.5.6.7 1.2.9 2 .4 1.2.8 2.7 1.5 3.8 0 0 0 0 0 0l.2.2s0 0 0 0l.2.2v.1h.2a4.4 4.4 0 0 0 .2.2h.1l.2.1a6 6 0 0 0 .3.2h.2a13.3 13.3 0 0 0 .3 0h.1a7 7 0 0 0 3.4-1c3.4-1.5 7.4-4.1 10.8-5.6 1.2-.5 2.4-1 3.6-1.3 1.4-.4 3-.6 4.4-.6 3-.2 6.6.4 9.7.9 1.4.2 2.9.3 4.2 0 1.7-.2 3.3-1 4.8-1.7l.4-.2m44.6 12.7c1.8-3 4-5.7 6.7-7.9a15 15 0 0 1 5.8-3 17 17 0 0 1 5.5-.2c3.7.5 7.5 1.9 11 2.9 2.2.6 4.4 1 6.7 1.3 3.5.5 8.7.6 12.3.7m45.9 7.3c3.3-2 6.6-4 10.4-4.8a20 20 0 0 1 8 0c3.6.6 8.4 2.2 12 3.2a32 32 0 0 0 8.2 1.4c2.2 0 4.5-.4 6.6-1l3.5-1.2" />
	<path fill="currentColor" stroke="currentColor" stroke-linecap="round" stroke-linejoin="round" stroke-miterlimit="10" stroke-width="2.8" d="M112 228.9c-.2 6-.4 12.2-1.4 18.1-.5 3.2-1.2 6.4-2.8 9.2a43.5 43.5 0 0 1-8.5 10.1l-4.4 4a32 32 0 0 0-7.9 12.3l-1 4.2c-1.5 11.3-3.8 33.8-4.9 45-.4 5.5-1.1 12.9-1.2 18.3v2.2c.2 1.7.6 3.4 1.7 4.5.7.9 1.7 1.3 2.7 1.4.3.3 14.5 0 15 .1 3 0 5.9-.2 8.6-1.2a10 10 0 0 0 2.3-1.2 8.3 8.3 0 0 0 3.5-5.4 12.3 12.3 0 0 0-1-7.5 7 7 0 0 0-2.3-2.5l-3-1.3c-1.5-.6-3-1-4.7-1.4h-.3s0 0 0 0a3.3 3.3 0 0 1-.3-.2h-.1l-.1-.2h-.1l-.1-.1-.2-.2s0 0 0 0l-.2-.2a5 5 0 0 1-.7-1.7 32 32 0 0 1-.4-7.3 134.8 134.8 0 0 1 6.7-31c1.1-3.1 2.5-6.2 4.4-9 .9-1.3 2-2.5 3.1-3.6l1.9-1.4c7.7-5.4 27.8-18.5 35.9-24m95.8 1.9c1.7 10.4 3.6 21.3 4 31.8.2 3.4 0 7.1-.4 10.5-.5 6.4-1.5 15.1-2.2 21.4-.6 5.2-1 10.5-.9 15.6.2 4.8.7 9.8 3 14 1 1.9 2.6 3.5 4.5 4 .6.2 1.3.2 1.8.2h16.3c1.9-.2 4-.7 5.5-1.8.8-.6 1.4-1.3 1.7-2 .4-.8.5-1.6.7-2.4a14 14 0 0 0-1.1-8.7 7.2 7.2 0 0 0-3.2-3c-.8-.5-1.9-.7-2.8-1a16 16 0 0 1-4.3-2.2s0 0 0 0a6.5 6.5 0 0 1-.4-.4s0 0 0 0l-.1-.2v-.1c-.5-.9-.6-1.6-.7-2.5l-.1-3.4c0-3 .4-6.2.9-9.2 2-13.6 6-30.6 8.9-44" />
	<path fill="currentColor" stroke="currentColor" stroke-linecap="round" stroke-linejoin="round" stroke-miterlimit="10" stroke-width="2.8" d="M100 217.7a42 42 0 0 1-1.6 8 83.4 83.4 0 0 1-7.5 17.5 16.7 16.7 0 0 1-2.7 3.7h-.1a18 18 0 0 1-.3.3h-.1l-.2.1s0 0 0 0l-.2.1h-.1a2.1 2.1 0 0 1-.2 0 5.8 5.8 0 0 1-.3 0s0 0 0 0h-.2s0 0 0 0l-.2-.1a4.1 4.1 0 0 1-.2-.3H86l-.1-.2-.1-.1c-.5-.8-.7-1.5-1-2.3l-.6-2.2-.4-1v-.2l-.2-.1v-.1l-.1-.1-.2-.1s0 0 0 0H83v.1h-.2v.2l-.2.1c-.8 1.3-1.9 4.5-2.5 5.9a27 27 0 0 1-4.8 8.4c-4 4.5-10.4 6-16 7.7-2.2.8-4.6 1.6-6.6 3.1-2.2 1.6-3.8 4-5.1 6.3l-2.4 4.2c-1.1 2-2.4 4-4.2 5.6-4.2 4-10.1 5.8-14.4 9.7a22.9 22.9 0 0 0-5 7.3l-1 1.4-.2.2-.1.1-.1.1a9.2 9.2 0 0 1-.4.3s0 0 0 0h-.2l-.1.1h-.2s0 0 0 0h-.4l-.1-.1h-.1l-.1-.1-.1-.1-.1-.1-.1-.1-.1-.1c-1-1-1.4-2-1.9-3.1a32.7 32.7 0 0 1-2-11.3c0-4.2.8-8.4 1.7-12.5l2.4-9.5c.6-2.7 1.2-5.6.7-8.4-.2-1.3-.8-3.1-1.1-4.4a25.4 25.4 0 0 1-.1-13.8c.6-2.4 1.8-4.7 3.2-6.7 2.4-3.4 5.6-6.2 8.7-9 3.3-3 7.6-6.5 10.4-9.8 1.1-1.2 2.2-2.6 3-4 1-2 1.6-4 2-6.1.7-3 1.1-6.6 2.5-9.3.8-1.7 2-3.2 3.3-4.5 2.4-2.6 6.4-5.9 9-8.4 1.9-1.8 3.8-3.8 5.4-6 5.5-7.4 9.4-16.7 14.7-24.2 2.8-4 6.2-7.4 9.9-10.5a121 121 0 0 1 8-6.1c6.9-4.6 29.9-20.9 36.6-25 7.4-4.5 15.2-8.7 23.4-11.7 5-1.8 10.3-3.1 15.6-3.9a96.4 96.4 0 0 1 52 7.2c6.3 2.9 13.8 7.4 20 10.2a57.1 57.1 0 0 0 20.4 5.2c9 1 19.4 1.3 27.9 4.9 3 1.3 6 3 8.8 4.9 4.8 3.1 10.5 7.6 15.6 10 7.7 3.7 16.4 4 24.7 4m-155.4 81.2c13.7 3.7 28.1 6.8 42 9.1" />
	<path fill="currentColor" stroke="currentColor" stroke-linecap="round" stroke-linejoin="round" stroke-miterlimit="10" stroke-width="2.8" d="M237 188.5a266 266 0 0 0-6.6 30.4c-.6 4.7-1 9.6-.6 14.4a35 35 0 0 0 8.8 19 72.1 72.1 0 0 0 18.5 14.3 187 187 0 0 0 19 9.5c8.5 3.7 17.2 7.4 25 12.2 2.5 1.6 4.9 3.2 6.9 5.3 1 1 1.9 2.3 2.6 3.6 2.6 4.5 3.8 9.6 4.2 14.7.3 4.6 1 13 1.5 17.5v.6a14 14 0 0 0 .2.5c.6 2.3 2.3 4 4.2 5.1a24.3 24.3 0 0 0 9.5 3.2 7.2 7.2 0 0 0 3.5-.4l.1-.1a5.5 5.5 0 0 0 .3-.2h.1l.2-.2h.1l.1-.2.2-.1.1-.1.1-.2a8 8 0 0 0 1.4-2.4c.4-1 .6-2 .8-3 .6-2.9.7-5.8.8-8.6a84.7 84.7 0 0 0-3.5-22.8 43 43 0 0 0-3-6.6c-.8-1.6-3-4.8-4-6.4a372 372 0 0 0-8.4-11.7 86.9 86.9 0 0 0-14.2-13c-3.4-2.5-7.5-5.1-11-7.6a108.7 108.7 0 0 1-9-7.4c-.9-1-1.5-2.1-1.8-3.3-.3-1.5 0-3 .6-4.4 1.2-2.5 3.3-4.4 5.5-6a44 44 0 0 1 19.7-8.2l3.2-.3c9.3-1.2 18.8-3.8 27.9-6.1M92 151.4c-1.5 9.4-2.8 19.1-3 28.7a71.4 71.4 0 0 0 2 20 82.8 82.8 0 0 0 8.5 17c1.6 2.1 3.3 4.3 5.3 6.1a60 60 0 0 0 15.2 10.3l5.5 2.5a68.2 68.2 0 0 1 23.5 18.2 42 42 0 0 1 8.6 19.7c.3 1.4.5 3 .6 4.5.8 6.8 1.9 18.3 3 25 .8 3 2.3 6 4 8.7 1.9 2.7 4 5.3 6.3 7.8 6.2 6.8 12.3 14.4 17.7 22 3 4.3 6.3 8.8 10 12.4.9.8 1.7 1.5 2.7 2 1.2.6 2.5 1 3.8 1.2 2.4.5 4.8.7 7.3.8 2 0 4 .1 6-.2 2.7-.3 5.8-1.1 7.2-3.4.4-.7.6-1.3.8-2l.3-1.4c.3-1.6.5-3.2.1-4.7-.2-1-.6-1.8-1-2.7-.6-1-1.4-2.1-2.3-2.8v-.1l-.2-.1c-1-.6-2-.9-3.1-1.1l-3.3-.5c-.6 0-1.2 0-1.9-.2a13 13 0 0 1-6.7-3.3l-1.5-1.7c-3.1-3.8-6.7-9-9.6-13.1-4.1-6.1-9-13-12.3-19.5a34 34 0 0 1-2.5-6.7 79.4 79.4 0 0 1 0-7.4c.7-8.4 2.2-18.7 3.3-27 .8-7.1 1.9-16.8 2.4-24 .4-5.2.4-10.7-1-15.8a26.1 26.1 0 0 0-5.4-10.3c-3-3.5-6.5-6.6-10-9.6-6-5.3-13-10.8-19.4-15.6M410.6 220a11 11 0 0 0-1.2-4c-1-2-2.7-4.1-4-5.9a8.8 8.8 0 0 1-1.6-2.8 6 6 0 0 1-.2-3c.2-1.2 1-3.3 1.3-4.4l.8-3.1c.8-4.1.7-8.5.7-12.7 0-5-.5-11.8.6-16.8.6-2.9 1.7-5.6 3.2-8.2 5-8.4 13.1-16.6 18.6-24.8a39.8 39.8 0 0 0 6.9-20.2c0-1.7 0-3.5-.6-5v-.2l-.1-.1v-.1l-.1-.1a10.4 10.4 0 0 0-.3-.4l-.1-.1-.1-.1-.1-.1-.1-.1h-.2v-.2h-.4l-.1-.1h-.2l-.2-.1c-.8-.2-1.5-.2-2.3 0-.8.1-1.6.4-2.4.7a43.2 43.2 0 0 0-9.4 5.5c-4.5 3.3-10 7.5-14.7 10.4-6.9 4.2-14.4 7.9-21.6 11.2" />
	<path fill="currentColor" stroke="currentColor" stroke-linecap="round" stroke-linejoin="round" stroke-miterlimit="10" stroke-width="2.8" d="M330.2 190.3c-2 5.3-3 11.4-1.1 17a22 22 0 0 0 10.2 11.9c4.5 2.4 9.7 3 14.7 3.2 4.7.2 11 .3 15.6 1.2a59 59 0 0 1 9.3 2.5c3.4 1.2 8.5 3.2 11.8 4 2.7.7 5.6 1.1 8.4.8a15 15 0 0 0 9.6-4.3" />
	<path fill="currentColor" stroke="currentColor" stroke-linecap="round" stroke-linejoin="round" stroke-miterlimit="10" stroke-width="2.8" d="M403 224.4a4.6 4.6 0 0 1-.8-3.8v-.4h.1l.1-.2v-.1a4.4 4.4 0 0 1 .3-.3l.2-.1v-.1h.2a116.6 116.6 0 0 0 .3-.3h.1c1-.3 1.9-.3 2.9-.3s2.4.2 3.4.6c0 0 0 0 0 0a6.3 6.3 0 0 1 .4.3h.1a15.4 15.4 0 0 1 .5.4v.1l.1.1.1.2s0 0 0 0l.1.2a5 5 0 0 1 .1.2v.1c.3.8.2 1.6 0 2.3a5.5 5.5 0 0 1-1 2.3v.1l-.2.2s0 0 0 0l-.2.2h-.1l-.1.1-.1.1h-.1l-.1.1h-.2v.1h-.2l-.1.1h-.3v.1h-.2c-1 .1-2 0-2.7-.4-1-.4-2-1-2.6-1.9zM384.1 166c.4-4.4.4-9.1.3-13.6a63.7 63.7 0 0 0-3.7-24 80.3 80.3 0 0 0-6-13.4c-1-1.5-2.3-3.1-4-3.9-2.8-1.3-5.7.3-8 2-3 2.4-5.5 5.3-8 8.3a146 146 0 0 0-10.3 15.3 64.2 64.2 0 0 0-6.9 14.8c-2 6.9-1.5 14.2.1 21" />
	<path fill="currentColor" stroke="currentColor" stroke-linecap="round" stroke-linejoin="round" stroke-miterlimit="10" stroke-width="3.5" d="M112 228.9c-.2 6-.4 12.3-1.4 18.2a29 29 0 0 1-1.6 6.6 44.8 44.8 0 0 1-9.7 12.6l-4.4 4a32 32 0 0 0-7.9 12.3l-1 4.2c-1.5 11.3-3.8 33.8-4.9 45-.4 5.5-1.1 12.9-1.2 18.3v2.2c.2 1.7.6 3.4 1.7 4.5.7.8 1.7 1.3 2.7 1.4.3.3 14.5 0 15 .1 3 0 5.9-.2 8.6-1.2a10 10 0 0 0 2.3-1.2 8.3 8.3 0 0 0 3.5-5.4 12.3 12.3 0 0 0-1-7.5 7 7 0 0 0-2.3-2.5l-3-1.3c-1.4-.6-3-1-4.7-1.4h-.3s0 0 0 0a3.3 3.3 0 0 1-.3-.2h-.1l-.1-.2h-.1l-.1-.1-.2-.2s0 0 0 0l-.1-.2c-.4-.5-.7-1.1-.8-1.7l-.4-2a32 32 0 0 1 0-5.3 134.8 134.8 0 0 1 6.7-31c1-3 2.4-6 4.2-8.7a20 20 0 0 1 3.1-3.7c6.5-5 30.9-20.7 38-25.5a46.2 46.2 0 0 1 6 18.7c.7 6.6 1.9 18 2.9 24.5 0 .7.2 1.4.4 2.1a31 31 0 0 0 4.6 8.9c2.8 4.2 6.7 8 10 11.8 3.6 4.4 7.6 9.4 11 14 2.7 3.7 5.6 8 8.6 11.5a48 48 0 0 0 5.4 5.3c1.3.9 2.7 1.3 4.2 1.7 2.5.5 5.1.7 7.7.8 4.2.1 11.4.2 13.5-4.2l.6-1.7.4-2c.2-1.2.2-2.5 0-3.7-.2-1-.7-1.9-1.1-2.8-.6-1-1.4-2.1-2.3-2.8v-.1l-.2-.1c-1-.6-2-.9-3.1-1.1a30.4 30.4 0 0 0-5.2-.7 15 15 0 0 1-4.6-1.7c-1.4-1-2.7-2.1-3.7-3.4-5.3-6.6-10.7-14.7-15.4-21.7a83.8 83.8 0 0 1-9-17.8c-.2-1.6 0-3.2 0-4.7.8-11.7 3-24.6 4.2-36.3a611.5 611.5 0 0 0 1.9-22.1c0-3.8-.4-7.5-1.4-11.2 13.7 3.7 28.1 6.8 42 9.1a33.8 33.8 0 0 0 5 17.7c3.4 5.5 8.2 10 13.5 13.8 1.6 10.4 3.5 21.3 4 31.8.1 3.4-.2 7.1-.5 10.5-.5 6.4-1.5 15.1-2.2 21.4-.6 5.2-1 10.5-.9 15.6.2 4.8.7 9.8 3 14 1 1.9 2.6 3.5 4.5 4 .6.2 1.3.2 1.8.2h16.3c1.9-.2 4-.7 5.5-1.8.8-.6 1.4-1.3 1.7-2 .4-.8.5-1.6.7-2.4a14 14 0 0 0-1.1-8.7 7.2 7.2 0 0 0-3.2-3c-.8-.5-1.9-.7-2.8-1a16 16 0 0 1-4.3-2.2s0 0 0 0a6.5 6.5 0 0 1-.4-.4s0 0 0 0l-.1-.2v-.1c-.5-.9-.6-1.6-.7-2.5l-.1-3.4c0-3 .4-6.2.9-9.2 2-13.6 6-30.6 8.9-44 6.8 3 13.9 6.1 20.3 9.9 3 1.8 6 3.7 8.5 6.2a25 25 0 0 1 5.4 10.2c.6 2 1 4 1.3 6 .6 5.7 1 14.3 1.7 19.8.2 1.3.7 2.5 1.4 3.5 1.7 2.3 4.3 3.5 7 4.5 1.6.6 3.3 1 5 1.3a7.6 7.6 0 0 0 4-.4l.1-.1a5.5 5.5 0 0 0 .3-.2h.1l.2-.2h.1l.1-.2.2-.1.1-.1.1-.2a8 8 0 0 0 1.4-2.4c.4-1 .6-2 .8-3 .6-2.9.7-5.8.8-8.6a84.7 84.7 0 0 0-3.5-22.8 43 43 0 0 0-3-6.6c-.8-1.6-3-4.8-4-6.4a372 372 0 0 0-8.4-11.7c-1-1.2-2-2.5-3.1-3.6a114.6 114.6 0 0 0-19.2-15 158.6 158.6 0 0 1-11.5-9 8 8 0 0 1-2.2-3.6 7 7 0 0 1 .8-4.9c1.4-2.6 3.6-4.5 6-6.2a43.6 43.6 0 0 1 19.5-7.7l2.7-.2c9.3-1.2 18.8-3.8 27.9-6.1 4.3 2.2 9.2 2.6 14 2.9 4.7.2 11 .3 15.6 1.1a59 59 0 0 1 9.3 2.6c3.4 1.2 8.5 3.2 11.8 4 2.7.7 5.6 1.1 8.4.8a15 15 0 0 0 9.6-4.3h.2s0 0 0 0l.2-.1a6.8 6.8 0 0 0 .5-.2v-.1l.2-.1.1-.1.1-.1.1-.1.1-.2c.6-.6.9-1.4 1-2.1.2-.8.3-1.6 0-2.3v-.1a4 4 0 0 0 0-.2v-.1l-.1-.2v-.1l-.1-.1-.1-.1-.1-.1v-.1l-.2-.4v-.5a12.1 12.1 0 0 0-1.8-4.4c-1.3-2.1-3.3-4.2-4.6-6.4a5.9 5.9 0 0 1-.5-4.3l1.2-4.2c.4-1.1.7-2.3.9-3.4.7-4 .6-8.3.6-12.4 0-5-.5-11.8.6-16.8.6-2.9 1.7-5.6 3.2-8.2 5-8.4 13.1-16.6 18.6-24.8a39.8 39.8 0 0 0 6.9-20.2c0-1.7 0-3.5-.6-5v-.2l-.1-.1v-.1l-.2-.1a10.4 10.4 0 0 0-.2-.4l-.1-.1-.1-.1-.1-.1-.1-.1h-.2v-.2h-.4l-.1-.1h-.2l-.2-.1c-.8-.2-1.6-.2-2.3 0-.8.1-1.6.4-2.4.7a43.2 43.2 0 0 0-9.4 5.5c-4.5 3.3-10 7.5-14.7 10.4-6.9 4.2-14.4 7.9-21.6 11.2-1.6-6-3.6-12-6.5-17.5-.7-1.4-1.5-2.7-2.4-3.9a9.8 9.8 0 0 0-2.6-2.4c-3.5-2.1-7.3.6-10 2.9-3 2.7-5.7 6-8.2 9.3a148 148 0 0 0-10 15.4c-8.3 0-17-.3-24.7-4-5.1-2.4-10.8-7-15.6-10a57.3 57.3 0 0 0-8.8-4.9c-8.5-3.6-18.9-3.9-28-4.9-5-.5-10.1-1.3-15-3-7.2-2.5-15.1-7.4-22-10.8A91.5 91.5 0 0 0 157 97c-7.2 2.6-14.2 6.3-20.8 10.3-3.6 2.2-7.7 5-11.1 7.3-3.4 2.4-29 20-31.7 22-4 3.1-7.9 6.5-11 10.4-4.6 5.4-8.2 12.7-11.7 18.8a66.4 66.4 0 0 1-7.4 10.9c-2.8 3.2-7 6.6-10.1 9.6a33.2 33.2 0 0 0-4.1 4.4c-.8 1.1-1.5 2.4-2 3.7-1.1 3-1.4 6.7-2.3 9.7-.6 2.5-1.8 4.8-3.3 6.8-3.5 4.5-8.8 8.6-13 12.4a39.9 39.9 0 0 0-9.2 10.9c-2 4-2.6 8.4-2.1 12.8.1 1.6.4 3.2.8 4.7s1 3.4 1.2 4.9c.4 2.7-.2 5.3-.8 8L16 274c-1 4-1.7 8.3-1.7 12.5a32.7 32.7 0 0 0 2 11.3c.5 1 1 2.2 1.8 3v.1a7 7 0 0 0 .3.2h.1a5.7 5.7 0 0 0 .4.3h.1l.1.1h.2s0 0 0 0h.5l.2-.1v-.1l.2-.1.1-.1.1-.1.2-.2 1-1.6c1-1.6 1.9-3.5 3-5l2-2.2c4.4-4 10.4-6 14.7-9.8 1.7-1.6 3-3.6 4.1-5.6l2.4-4.2c1.3-2.4 2.9-4.7 5.1-6.3 2-1.5 4.4-2.3 6.7-3 5.5-1.8 12-3.3 16-7.8 2-2.4 3.5-5.4 4.7-8.4.6-1.3 1.7-4.5 2.4-5.7 0 0 0 0 0 0l.1-.2.1-.1a3.2 3.2 0 0 1 .2-.2h.2v-.1h.2s0 0 0 0a4.7 4.7 0 0 1 .3.3 3.8 3.8 0 0 1 0 .2l.5 1.1.7 2.2a11.6 11.6 0 0 0 .9 2.3v.1l.2.1v.1l.2.1v.1l.2.1s0 0 0 0a1.7 1.7 0 0 0 .3.1h.5s0 0 0 0h.3a5.8 5.8 0 0 0 .3-.2l.1-.1.1-.1.2-.1c1-1 1.7-2 2.4-3.2 1.4-2.2 2.5-4.6 3.6-6.9a53.7 53.7 0 0 0 5.8-19.2 43 43 0 0 0 12 11.3z" />
</svg>